# xmcd
# 
# Track frame offsets:
#     150
#     12020
#     27328
#     38914
#     50936
#     67621
#     84462
#     96354
#     111672
#     123514
#     138559
#     152027
#     165021
#     182848
# 
# Disc length: 2634
# 
# Revision: 3
# Processed by: cddbd v1.5.2PL0 Copyright (c) Steve Scherf et al.
# Submitted via: BonkEnc v1.0.8
# 
DISCID=b60a480e
DTITLE=THE LIBERTINES - up the bracket
DYEAR=2002
DGENRE=
TTITLE0=VERTIGO
TTITLE1=DEATH ON THE STAIRS
TTITLE2=HORRORSHOW
TTITLE3=TIME FOR HEROES
TTITLE4=BOYS IN THE BAND
TTITLE5=RADIO AMERICA
TTITLE6=UP THE BRACKET
TTITLE7=TELL THE KING
TTITLE8=THE BOY LOOKED AT JOHNNY
TTITLE9=BEGGING
TTITLE10=THE GOOD OLD DAYS
TTITLE11=I GET ALONG
TTITLE12=WHAT A WASTER
TTITLE13=MOCKING BIRD
EXTD=
EXTT0=
EXTT1=
EXTT2=
EXTT3=
EXTT4=
EXTT5=
EXTT6=
EXTT7=
EXTT8=
EXTT9=
EXTT10=
EXTT11=
EXTT12=
EXTT13=
PLAYORDER=
